<?xml version="1.0" encoding="UTF-8"?><svg id="Layer_1" xmlns="http://www.w3.org/2000/svg" viewBox="0 0 1860.45 518.08"><defs><style>.cls-1{fill:currentColor;}</style></defs><path class="cls-1" d="M1860.25,305.36c0,12.24.52,20.61-.11,28.89-1.24,16.11-2.57,32.25-4.92,48.22-1.78,12.16-4.21,24.4-8.08,36.03-8.28,24.94-24.69,43.51-47.64,56.36-21.87,12.24-45.16,21.22-69.2,27.72-19.17,5.18-38.85,9.03-58.56,11.51-20.97,2.63-42.21,3.73-63.35,3.99-13.95.17-27.99-1.87-41.88-3.72-16.81-2.24-33.62-4.75-50.2-8.23-13.49-2.83-26.78-6.87-39.93-11.09-15.98-5.13-32.05-10.22-47.49-16.74-23.25-9.82-46.74-19.5-68.78-31.69-38.01-21.03-75.27-43.46-112.27-66.22-27.91-17.17-54.77-36.04-82.4-53.68-18.54-11.83-37.28-23.43-56.53-34.04-18.05-9.94-37.76-15.28-58.58-13.17-18.7,1.9-34.24,10.46-46.15,25.27-17.26,21.45-34.11,43.26-52.03,64.15-14.28,16.64-29.25,32.82-45.1,47.96-17.3,16.54-37.57,29.04-59.7,38.52-15.93,6.82-32.49,11.22-49.37,14.54-6.44,1.27-12.97,2.02-19.53,2.25-11.36.39-22.85.99-34.15-.03-14.41-1.29-28.89-3.05-43-6.17-16.69-3.7-33.44-7.94-49.4-13.96-23.76-8.96-47-19.35-70.18-29.76-29.04-13.04-57.56-27.23-86.72-39.99-27.04-11.83-55.25-20.69-84.17-26.53-25.87-5.22-52.32-7.49-78.63-5.12-31.57,2.84-62.68,9.03-92.06,21.5-20.8,8.82-41.16,18.66-61.73,28.02-17.11,7.79-34.04,15.99-51.39,23.2-16.32,6.78-33.52,10.73-51.3,8.86-19.77-2.08-36.18-11.11-48.83-26.64-12.57-15.43-18.29-33.81-21.8-52.87-2.14-11.64-2.95-23.54-4.1-35.36-.62-6.43-1.13-12.92-.96-19.36.41-15.58.62-31.22,2.11-46.72,1.32-13.72,3.65-27.42,6.64-40.88,3.81-17.16,7.5-34.52,13.49-50.97,8.53-23.45,19.48-45.86,35.77-65.35,28.14-33.68,64.04-55.58,104.84-70.06,15.65-5.55,31.57-10.53,47.66-14.56,11.44-2.87,23.41-3.58,35.11-5.48C268.15.32,290.85-.45,313.53.21c15.17.44,30.38,1.81,45.42,3.86,21.31,2.91,42.56,6.42,63.62,10.73,11.67,2.39,23.17,5.54,34.47,9.32,26.37,8.85,52.76,17.8,78.61,28.06,21.92,8.7,43.35,18.72,64.65,28.87,48.64,23.16,95.45,49.65,140.96,78.5,33.91,21.5,67.96,42.77,102.12,63.86,26.96,16.65,54.17,32.99,83.86,44.49,16.14,6.25,32.9,10.76,50.3,8.93,19.38-2.04,36.47-9.8,48.3-26.05,16.59-22.78,32.47-46.07,49.11-68.81,18.52-25.31,37.15-50.55,59.79-72.52,16.81-16.31,35.84-29.14,58.3-35.73,11.26-3.3,23.37-5.51,35.03-5.28,16.89.34,33.84,2.8,49.94,8.73,13.3,4.89,27.03,8.95,39.68,15.19,18.04,8.9,35.76,18.67,52.7,29.49,24.54,15.66,47.91,33.15,72.45,48.81,19.77,12.62,40.32,24.08,60.93,35.31,16.71,9.1,34.88,14.88,53.23,19.66,19.58,5.1,39.75,5.42,59.78,4.23,31.82-1.89,59.39-15.56,85.45-32.83,16.67-11.04,33.08-22.52,50.16-32.88,11.73-7.12,24.56-12.44,38.77-12.06,20.19.54,35.35,9.95,45.32,27.38,10.81,18.91,15.54,39.69,18.97,61.03,3.68,22.83,5.61,45.67,4.8,64.86ZM1699.6,337.07c-2.26-6.05-4.53-12.1-6.79-18.15-4.35-11.62-8.71-23.24-13.05-34.87-2.51-6.73-11.93-12.17-19.05-9.81-7.02,2.33-14.42,3.54-21.66,5.22-10.74,2.49-18.52,8.17-20.37,19.69-.84,5.22-.92,10.55-1.37,15.83-.98,11.53-1.81,23.08-3.02,34.59-1.11,10.51-2.62,20.99-3.97,31.47-1.91,14.74-3.94,29.47-5.7,44.22-1,8.37-1.94,16.78-2.22,25.2-.26,7.92,5.59,13.46,13.36,13.54,5.66.06,11.33.13,16.99-.05,15.39-.49,22.19-6.07,23.14-18.88,1.06-14.2,1.9-28.41,3.13-42.59.37-4.24,1.6-8.42,2.72-12.55.42-1.54,2.3-2.69,2.99-4.16l2.05,3.47c1.67,2.86,3.38,5.75,4.64,8.81,4.42,10.72,8.62,21.53,12.97,32.28,2.73,6.75,7.35,8.72,14.34,7.16,8.36-1.87,13.06-7.2,16.03-14.8,5.3-13.58,10.64-27.15,16.26-40.6.94-2.26,3.18-4.3,4.43-6.43l6.11,1.21c.66,3.67,1.29,7.34,1.62,11.04,1.24,13.69,2.04,27.41,3.15,41.11.56,6.86,7.57,12.9,13.47,10.62,10.29-3.97,20.53-8.37,30.06-13.87,8.19-4.72,11.31-13.16,10.71-22.61-.31-4.94-1.25-9.84-1.61-14.77-.81-10.91-1.28-21.85-2.16-32.75-1.51-18.63-3.04-37.25-4.92-55.84-1.37-13.47-2.86-26.96-5.2-40.28-1.55-8.82-5.35-16.69-14.97-20.14-5.52-1.98-10.41-.24-15.5,1.09-14.24,3.7-25.08,11.87-30.37,25.7-6.68,17.45-12.35,35.28-18.63,52.89-2.19,6.13-5.17,11.98-7.6,18.03ZM226.72,257.77c-.97-7.86-1.56-15.8-3.06-23.56-.96-4.98-3.03-9.78-4.97-14.51-8.83-21.46-28.98-33.28-52.54-27.73-5.43,1.28-11.04,2.16-16.59,2.37-6.65.26-10.87-6.19-9.85-12.84,2.05-13.41,20.88-24.19,35.3-17.8,12.48,5.53,24.71,2.13,31.09-9.97,3.83-7.27,6.2-15.66,7.53-23.82,1.52-9.34.55-19.09-3.87-27.66-8.64-16.76-20.37-18.12-36.1-14.13-26.21,6.65-49.09,19.74-67.52,40.06-12.77,14.08-21.37,30.46-26.51,48.53-4.52,15.87-6.33,32.17-2.31,48.52,3.85,15.65,12.08,27.85,27.74,34.07,13.14,5.22,26.17,3.41,39.41.5,3.49-.77,7.88-.81,10.96.67,7.2,3.46,8.21,13.77,2.74,20.76-9.15,11.67-25.68,15.49-40.65,9.75-3.62-1.39-7.74-2.52-11.53-2.26-13.11.88-21.33,8.68-26.62,20.22-4.87,10.61-5.55,21.78-3.93,33.01,1.43,9.94,4.98,19.07,15.23,23.52,7.73,3.36,16.02,3.86,23.92,1.95,25.52-6.17,49.17-16.71,70.76-31.83,27.02-18.92,40.68-44.69,41.38-77.81ZM462.71,266.65c.73-4.13,5.91-5.76,8.72-2.65,2.07,2.29,3.73,5.05,4.84,8.06,5.1,13.81,9.96,27.71,15.19,41.46,8.32,21.88,25.56,33.22,48.94,32.49,6.3-.19,11.56-4.24,13.25-10.24,2.2-7.84,1.94-15.61-2.62-22.46-9.84-14.78-16.04-31.17-22.19-47.64-1.72-4.6-1.25-7.61,3.44-10.2,8.35-4.62,14.43-11.52,18.6-20.21,8.33-17.34,9.15-35.73,5.82-53.97-6.23-34.15-23.87-60.94-56.39-75.2-20.73-9.09-42.72-15.41-64.24-22.48-5.42-1.78-11.41.68-13.85,5.84-3.79,8.03-4.45,18.09-4.51,27.64-.07,9.74-.38,19.49-.62,29.21-.52,21.21-1.66,42.41-2.94,63.59-.99,16.34-2.59,32.64-3.87,48.97-.75,9.57-1.04,19.2-2.23,28.72-1.28,10.29,3.49,18.96,13.19,22.15,3.3,1.08,6.59,2.26,9.98,2.94,6.45,1.29,12.94,2.77,19.48,3.21,6.17.41,10.09-4.11,10.27-10.31.31-11.12.49-22.25,1.07-33.35.1-1.85.36-3.7.68-5.56ZM335.23,182.35s.02,0,.04,0c0,11.12.57,22.29-.19,33.36-.54,7.81-3.41,15.45-9.92,20.49-2.75,2.13-6.98,3.93-10.21,3.49-5.35-.73-9.27-4.62-12.05-9.59-6.27-11.24-7.7-23.67-7.78-35.98-.22-34.44.79-68.9.58-103.34-.1-15.86-4.15-28.3-26.46-26.54-17.73,1.4-30.64,14.08-30.71,31.14-.08,20.7,1.86,41.4,2.67,62.11.84,21.4,1.06,42.82,2.12,64.21.96,19.25,4.64,37.99,13,55.59,6.75,14.22,16.33,25.3,32.01,30.01,12.19,3.66,24.53,3.5,36.93,1.67,22.41-3.31,39.16-14.78,49.47-35.09,10.89-21.45,14.11-44.81,14.83-68.31.79-25.76-.47-51.57-.61-77.36-.05-10.13.69-20.26.75-30.39.07-11.15-1.33-22.37-12.71-27.67-7-3.25-15.12-4.88-22.87-5.53-12.97-1.09-19.94,6.74-21.75,21.31-.08.68-.1,1.37-.07,2.06.7,15.18,2.35,30.32,2.8,45.5.49,16.28.11,32.58.11,48.87ZM1256.86,135.36c-16.14-.03-22.49,6.35-22.58,19.85-.04,6.33.5,12.73-.22,18.98-1.95,16.88-4.19,33.74-6.77,50.54-3.31,21.52-7.68,42.89-10.41,64.47-2.01,15.91-2.53,20.62,12.67,29.65,11.42,6.78,23.01,13.28,34.57,19.83,15.14,8.58,31.13,13.53,48.81,11.39,15.83-1.91,29.35-8.31,39.41-20.82,15.75-19.58,20.26-42.98,20.17-67.14-.05-13.4-2.28-26.85-6.39-39.98-5.38-17.19-13.86-32.19-26.31-45.11-13.78-14.32-30.75-23.67-48.69-31.44-11.84-5.13-24.04-9.31-34.27-10.21ZM1458.59,416.02c.21.03.43.05.64.08,0,1.17.08,2.34-.01,3.5-1.04,13.07,5.93,19.42,15.12,22.2,13.26,4.01,26.53,8.18,40.06,11.04,16.94,3.58,34.14,5.89,51.23,8.74,7.06,1.18,13.63-2.67,14.93-9.78,1.36-7.45,2.02-15.09,2.24-22.67.3-10.51-5.91-17.16-16.18-18.73-12.57-1.91-25.13-3.93-37.64-6.17-3.21-.57-6.43-1.81-9.31-3.35-4.59-2.45-6.07-8.05-4.07-13.51,2.03-5.54,4.29-6.96,10.74-5.39,11.1,2.7,22,6.02,33.71,5.22,5.15-.35,8.67-2.53,9.59-7,1.35-6.57,2.47-13.48,1.86-20.08-.6-6.52-4.73-11.54-11.99-12.87-8.27-1.52-16.58-2.96-24.75-4.91-9.03-2.15-13.96-3.78-13-15.03.69-8.08,4.17-10.78,12.13-8.69,12.14,3.19,24.31,6.26,36.52,9.11,8.31,1.94,16.89-1.55,18.83-8.31,2.97-10.33,5.31-21.08,1.19-31.58-1.3-3.32-4.67-6.67-7.93-8.16-4.38-2.01-9.61-2.11-14.42-3.25-13.15-3.1-26.4-5.86-39.36-9.62-10.3-2.99-20.07-7.8-30.35-10.85-12.39-3.67-20.95,1.06-23.64,12.15-.58,2.38-.32,4.96-.5,7.45-.76,10.57-1.28,21.16-2.37,31.7-1.26,12.16-3.08,24.25-4.57,36.39-1.37,11.15-2.58,22.32-3.92,33.47-1.56,12.97-3.18,25.93-4.77,38.9ZM632.2,247.04c0-.3.03-.6.08-.9.82-4.55,1.49-9.13,2.53-13.63.88-3.8,3.39-5.09,7.08-3.41,4.23,1.93,8.51,3.78,12.65,5.88,7.98,4.06,15.72,8.63,23.86,12.35,9.6,4.39,16.11,1.08,18.45-9.39,1.54-6.89,2.28-13.99,2.92-21.04,1.14-12.53-2.85-22.17-14.58-27.74-18.11-8.61-35.76-18.18-53.74-27.08-8.73-4.33-17.61-8.44-26.69-11.95-6.96-2.7-17.91,3.33-19.25,10.05-.74,3.71-1.06,7.54-1.19,11.33-.45,13.12-.68,26.25-1.12,39.37-.2,6.13-.57,12.26-1.06,18.37-1.23,15.17-2.59,30.32-3.87,45.48-.81,9.56-1.53,19.13-2.4,28.68-1.15,12.68-2.71,25.33-3.52,38.03-.58,9.17,3.38,16.89,11.5,21.13,7.41,3.87,15.36,7.55,23.48,8.98,9.74,1.71,13.86,2.13,15.57-8.89,1.26-8.14,1.25-16.48,2.05-24.7.67-6.89,1.39-13.81,2.66-20.61,1.34-7.18,3.65-8.17,10.26-5.73,8.69,3.21,17.41,6.31,26.14,9.4,13.99,4.95,15.09-9.56,16.82-18.34,3.36-15.69-.32-24.98-12.68-30.29-7.6-3.26-15.48-5.86-23.17-8.91-10.29-4.09-12.78-5.37-12.79-16.46ZM703.26,381.25c-.07,19.58,4.21,25.85,15.87,28.59,12.85,3.02,25.6,6.69,38.6,8.85,13.18,2.19,26.6,3.07,39.94,4.16,4.85.4,9.81-1.31,11.82-5.93,4.76-10.91,6.66-22.23.7-33.44-2.43-4.56-6.43-6.96-11.75-7.15-4.97-.18-9.98-.27-14.87-1.02-7.66-1.17-15.29-2.65-22.84-4.39-5.03-1.16-7.15-4.46-6.77-9.53.22-2.97.53-5.95,1.15-8.85.92-4.26,4.22-5.96,8.55-4.61,6.93,2.16,13.79,4.6,20.8,6.49,8.39,2.25,12.01.64,14.99-6.76,1.3-3.23,2.04-6.68,2.29-10.15.96-13.12-.91-20.21-14.71-23.45-5.47-1.28-10.82-3.08-16.25-4.55-10.77-2.93-14.63-10.74-10.31-20.95,1.78-4.2,4.35-5.05,8.7-3.19,10.82,4.62,21.64,9.23,32.54,13.64,7.38,2.98,14.04.48,15.73-7.07,1.75-7.81,2.17-16.06,2.08-24.1-.05-4.82-2.91-8.94-7.79-11.33-15.31-7.5-30.58-15.11-45.76-22.88-10.77-5.51-21.2-11.69-32.09-16.92-9.32-4.48-16.95,3.58-17.56,11.6-.54,7.11-.67,14.25-1.04,21.38-.33,6.46-.56,12.93-1.13,19.36-1.55,17.46-3.31,34.91-4.88,52.37-.82,9.07-1.24,18.19-2.19,27.24-1.32,12.66-2.96,25.29-3.83,32.6ZM1410.86,215.34c-6.02-.02-11.34,4.15-12.42,12.2-1.26,9.33-2.04,18.72-3.15,28.07-1.68,14.11-3.46,28.2-5.24,42.3-2.23,17.69-4.53,35.37-6.77,53.06-1.29,10.16-2.54,20.32-3.79,30.49-1.1,8.94.2,17.69,8.26,22.52,8.72,5.22,18.29,9.27,27.89,12.7,7.36,2.63,12.23-.18,14.93-7.63,1.54-4.25,1.82-9.02,2.26-13.6,1.48-15.64,2.53-31.33,4.22-46.94,2.04-18.87,4.52-37.7,6.92-56.53,1.52-11.95,3.36-23.87,4.86-35.82,2.09-16.64-1.86-26.27-14.68-32.52-6.72-3.28-12.71-8.63-23.28-8.29Z"/><path class="cls-1" d="M466.9,191.77c.7-9.44,1.26-18.34,2.07-27.22.34-3.74,2.49-5.87,6.46-4.61,17.6,5.58,29.46,13.83,25.88,36.77-1.67,10.71-10.54,15.5-20.55,11.26-7.42-3.14-15.09-6.33-13.86-16.2Z"/><path class="cls-1" d="M1319.22,255.37c.05,8.85-2.53,17.01-7.03,24.49-5.58,9.28-14.03,14.41-26.48,8.61-.15-.07-.3-.13-.46-.2-13.15-6-13.53-7.79-10.77-22.06,3.06-15.83,5-31.88,7.46-47.84.22-1.46.58-2.9.97-4.33,1.03-3.71,2.56-5.45,7.06-3.69,16.47,6.44,25.95,18.16,28.39,35.64.23,1.63.66,3.25.81,4.88.14,1.48.03,2.99.03,4.49Z"/></svg>