<?xml version="1.0" encoding="UTF-8"?><svg id="Layer_1" xmlns="http://www.w3.org/2000/svg" viewBox="0 0 796.79 792.15"><defs><style>.cls-1{fill:#127794;}</style></defs><path class="cls-1" d="M429.58,286.54c.48,8.04.73,14.95,1.35,21.83.8,8.85,1.85,17.68,2.86,26.52,1.61,14.06,3.68,28.09,4.73,42.2.46,6.23,1.87,12.5-.39,19.03-2.79,8.08-13.06,15.28-20.67,15.21-9.39-.08-18.78,1.29-28.19,1.79-14.11.75-24.28-13-24.65-24.42-.58-18.21-.26-36.44-.1-54.67.14-15.45,1.21-30.91.75-46.33-.38-12.81-2.41-25.58-3.67-38.36-.42-4.27-.64-8.57-1.11-12.83-1.31-11.95-2.5-23.91-4.12-35.82-1.79-13.19-4.11-26.31-6.01-39.49-1.15-7.98-1.99-16-2.88-24.01-2.05-18.33-4.07-36.67-6.04-55.01-1.38-12.78-3.47-25.56-3.74-38.37-.29-13.49,6.89-23.61,18.73-29.85,12.65-6.67,26.53-9.38,40.6-11.17,7.5-.95,15.08-3.2,22.48-2.71,22.23,1.47,42.88,7.42,58.35,25.11,10.92,12.49,16.93,27.29,20.91,43.13,4.23,16.84,6.41,33.96,7.02,51.29.29,8.28,1.57,16.65.79,24.82-1.94,20.24-5.15,40.28-17.57,57.39-1.94,2.67-3.85,5.4-6.09,7.81-4.99,5.37-5.25,6.61-2.28,13.57,4.65,10.91,9.29,21.83,13.83,32.79,10.27,24.8,20.34,49.69,30.81,74.4,2.62,6.19,6.13,12.09,9.83,17.74,4.27,6.52,11.58,7.8,18.45,7.52,12.53-.51,18.58,2.66,20.61,17.05,1,7.07,2.56,14.48,1.44,21.35-2.06,12.73-11.67,20.82-24.55,21.98-12.35,1.11-24.8,2.28-37.15,1.84-8.54-.31-17.2-2.63-25.4-5.31-7.75-2.53-12.86-9.24-15.81-16.43-5.08-12.4-8.83-25.34-13.31-38-4.37-12.36-8.99-24.63-13.42-36.97-2.94-8.19-5.62-16.47-8.69-24.61-1.33-3.53-1.66-8.03-7.72-10ZM438.41,140c.36-6.21.06-12.43-.89-18.58-.91-5.88-1.97-12.45-3.25-18.99-1.57-8.01-7.48-12.23-14.98-14.12-5.9-1.49-11.75,3.34-11.43,9.49.45,8.39,1.18,16.79,2.19,25.13,1.38,11.41,3.01,22.8,4.81,34.15.59,3.69-.58,8.65,3.99,10.4,4.62,1.77,8.15-1.61,11.49-4.3,1.26-1.01,2.2-2.45,3.18-3.77,4.1-5.52,4.44-11.81,4.89-19.42Z"/><path class="cls-1" d="M0,411.13c1.32-27.2,2.66-51.39,10.41-74.68,3.53-10.6,9.02-20.17,17.89-26.91,13.57-10.31,26.57-11.46,40.54,1.71,4.91,4.63,9.08,10.28,16.44,11.24,15.27,2,29.66-1.07,33.31-17.81,3.38-15.52,1.47-27.26-18.17-32.46-14.19-3.76-27.85-8.56-38.89-18.58-11.84-10.74-16.62-24.49-14.79-40.27,1.64-14.1,5.36-27.74,10.84-40.86,8.07-19.3,17.95-37.62,32.5-52.8,10.28-10.74,21.05-21.19,32.69-30.39,9.09-7.19,19.71-12.52,29.93-18.18,13.12-7.27,27.19-12.35,41.78-15.78,6.94-1.63,14.02-3.59,21.03.59,6.39,3.81,10.25,9.19,10.16,16.5-.1,7.72-.95,15.48-1.99,23.15-1.75,12.86-3.29,25.79-6.09,38.43-2.33,10.5-5.31,21.08-9.91,30.79-1.91,4.02-6.41,7.76-10.61,10.05-7.42,4.05-10.77,2.36-16.66-5.85-1.43-2-2.26-4.42-3.41-6.62-2.87-5.45-6.95-7.32-12.75-5.92-10.15,2.46-17.49,8.12-19.21,18.83-1.84,11.48,3.07,20.1,12.64,26.44,7.7,5.1,15.43,10.21,22.72,15.87,11.27,8.75,18.67,20.46,23.17,33.85,2.56,7.6,4.43,15.47,6.03,23.34,1.21,5.95,2.07,12.1,2.07,18.16,0,15.78-.1,31.59-1.09,47.33-.47,7.45-2.61,14.9-4.83,22.1-2.89,9.39-6.12,18.74-10.09,27.7-5.99,13.52-16.31,23.55-28.07,32.24-15.52,11.46-33.95,15.16-52.02,19.89-8.73,2.28-17.34,5.08-26.12,7.11-14.8,3.41-28.61,9.49-42.81,14.61-21.51,7.75-39.64-2.67-43.99-26.12-1.8-9.7-1.98-19.7-2.63-26.69Z"/><path class="cls-1" d="M273.89,570.24c1.66,14.8,1.89,29.73.74,44.58-.74,9.62-1.6,19.13-3.13,28.53-2.36,14.53-6.21,28.98-11.03,42.9-7.19,20.77-17.46,40.03-34.19,55.04-8.98,8.05-19.61,13.29-31.43,14.49-6.09.62-12.93-1.09-18.7-3.5-18.42-7.67-34.83-18.67-50.06-31.65-15.31-13.04-28.98-27.59-41.02-43.52-9.72-12.86-18.91-26.31-26.6-40.45-8.88-16.34-16.67-33.4-23.38-50.74-6.21-16.03-11.05-32.68-15.22-49.38-3.73-14.94-1.34-29.68,11.38-39.64,8.83-6.92,19.34-11.97,29.63-16.7,17.63-8.09,35.49-15.79,53.63-22.65,10.38-3.93,21.41-6.29,32.32-8.59,8.02-1.69,16.33-3.06,24.48-2.91,20.46.36,39.78,4.43,56.1,18.43,13.67,11.73,22.98,26.24,30.46,42.24,8,17.1,13.04,35.02,14.99,53.81.34,3.24.69,6.48,1.05,9.7ZM191.57,605.4c-.12-1.57-.14-3.14-.08-4.71.55-13.99-2.13-26.84-7.12-39.28-5.63-14.02-13.28-25.75-30.1-27.89-12.6-1.6-24.4-.82-35.02,7.33-4.05,3.1-6.2,6.75-5.32,11.37,1.73,9.16,3.51,18.42,6.46,27.23,3.9,11.63,8.26,23.23,13.72,34.19,6.01,12.05,13.31,23.47,20.44,34.93,2.31,3.71,6.82,5.78,10.87,3.98,5.4-2.4,11.54-5.15,14.97-9.6,8.57-11.11,12.18-24.14,11.18-37.56Z"/><path class="cls-1" d="M631.17,597.41c-.45.38-.67.97-.58,1.56,1.09,6.96,1.88,13.99,3.42,20.85,4.18,18.58,8.67,37.1,13.23,55.6,1.32,5.37,3.07,10.63,4.91,15.85,4.05,11.51-.08,20.58-8.53,27.96-13.32,11.63-28.94,19.58-45.03,26.57-12.42,5.4-25.83-6.76-27.14-17.99-1.11-9.46-2.75-18.86-3.78-28.33-1.27-11.81-2.06-23.67-3.22-35.5-1.16-11.8-2.44-23.58-3.81-35.35-1.3-11.12-2.79-22.22-4.18-33.33-1.64-13.06-3.3-26.12-4.87-39.19-1.43-11.94-2.6-23.91-4.16-35.83-1.79-13.7-4.19-27.32-5.75-41.04-1.45-12.8-2.77-25.72,5.58-37.2,6.59-9.05,15.27-13.66,26.47-14.28,8.04-.45,16.02-2.27,24.04-2.43,4.7-.09,9.81,1.09,14.1,3.07,9.64,4.46,14.73,13.51,19.88,22.21,8.42,14.21,16.56,28.58,25.01,42.78,2.92,4.91,4.9,4.65,7.56-.27,7.85-14.52,15.35-29.24,23.75-43.44,6.23-10.53,13.11-13.28,24.87-9.68,18.69,5.71,37.19,12.11,55.56,18.8,10.1,3.68,16.3,11.86,19.54,21.83,1.49,4.59,1.97,9.83,1.54,14.66-.78,8.82-1.98,17.7-4.06,26.29-3.9,16.11-7.66,32.34-13.12,47.95-6.96,19.93-16.48,38.84-28.05,56.61-7.34,11.26-14.98,22.3-25.15,31.27-2.23,1.97-4.49,3.97-6.97,5.59-3.83,2.5-7.88,3.38-12.07.5-6.04-4.15-9.65-9.48-8.51-17.15,2.26-15.11,4.6-30.21,6.82-45.32.53-3.59.82-7.22.93-10.84.02-.59-.16-1.19-.4-1.8-.41-1.04-1.72-1.39-2.6-.71-.66.5-1.24,1.03-1.51,1.69-3.46,8.55-6.71,17.19-9.97,25.82-3.44,9.1-8.12,17.37-15.42,24-4.27,3.87-6.41,3.86-10.67.08-6.65-5.88-10.18-13.67-13.69-21.53-2.69-6.02-5.47-12.01-8.57-17.82-.62-1.16-1.63-2.65-3.43-2.64-.72,0-1.41-.3-1.96.17h0Z"/><path class="cls-1" d="M384.49,736.15c0-14.45-.09-28.89.02-43.34.27-34.77.49-69.55,1.04-104.31.29-18.56,3.05-37.28,1.4-55.64-1.86-20.72-3.06-41.37-2.27-62.05.78-20.6,10.01-36.8,32.78-40.95,7.43-1.36,14.97-2.49,22.5-2.93,16.71-.97,33.45-1.96,50.17-1.88,7.94.04,16.12,1.68,23.74,4.03,10.85,3.34,13.99,12.7,14.92,22.99,1.03,11.5,2.31,22.99,2.85,34.52.38,8.19.66,16.67-4.41,23.9-4.9,6.98-11.22,9.9-20.26,9.01-10.72-1.06-21.73-1.14-32.43.02-8.06.87-14.58,4.53-13.82,15.85.39,5.81-.02,11.66.09,17.49.14,7.44,6.08,11.59,13.47,10.14,9.99-1.97,20.05-3.67,30.13-5.09,9.05-1.27,18.59,7.27,19.31,17.47.96,13.53,1.68,27.1,2,40.66.3,12.53-10.41,22.37-23,23.26-9.75.69-19.41,2.84-29.06,4.62-4.64.86-6.5,4.94-6.62,8.87-.2,6.75.11,13.61,1.2,20.26.93,5.62,7.76,10.21,14.54,9.6,8.8-.8,17.61-2.31,26.22-4.34,6.69-1.58,13.24-4.04,19.55-6.81,5.09-2.24,9.04-.51,12.76,2.28,8.06,6.04,11.48,14.58,12.52,24.37.97,9.16,2.48,18.27,3.35,27.45.8,8.38,2.14,16.93,1.29,25.2-1.26,12.38-9.96,19.9-20.93,24.21-17.48,6.86-35.78,10.75-54.21,14.3-12.98,2.5-25.95,2.98-39.02,2.8-10.84-.15-21.85.45-32.48-1.24-15.29-2.43-25.32-12.22-27.27-28.41"/><path class="cls-1" d="M796.76,385.96c-.09,12.35.9,22.43-4.09,31.97-4.82,9.22-15.89,14.06-26.18,12.5-9.93-1.5-20-1.99-29.95-3.39-10.72-1.5-21.48-3.05-32.02-5.47-12.93-2.97-25.64-6.86-38.45-10.35-17.75-4.83-29.23-18.22-29.55-37.38-.27-16.38-.22-32.78.05-49.16.1-6.07.47-12.38.37-18.43-.17-10.9-.51-21.54-.28-32.41.44-20.18,2.47-40.33,2.6-60.51.09-14.82-1.71-29.66-2.81-44.49-.96-12.9,5.47-20.95,16.67-25.96,1.22-.55,2.5-.99,3.77-1.03,13.77-.4,27.67-2.02,41.3-.76,23.45,2.18,44.43,10.39,54.51,34.01,4.67,10.93,7.54,22.73,10.29,34.35,1.85,7.81-8.02,16.84-15.82,14.99-5.88-1.39-11.52-3.78-17.35-5.42-4.37-1.23-8.86-2.11-13.34-2.87-3.71-.63-5.53,1.95-6.42,4.95-3.18,10.68,2.76,19.68,13.76,20.65,4.69.41,9.45.33,14.16.03,8.57-.54,16.91.6,24.71,4,8.71,3.8,11.15,12.26,12.95,20.48,1.9,8.65,2.97,17.5,4.08,26.3,1.1,8.71-6.26,20.97-19.23,20.63-7.23-.19-13.91-1.64-20.59-4.55-4.21-1.84-9.27-2.43-13.93-2.34-6.46.13-10.68,7.66-8.9,14.85,2.83,11.45,6.47,14.52,20.9,17.55,9.82,2.06,19.66,1.26,29.5-.73,10.82-2.19,21.66,4.68,25.56,14.95,4.37,11.51,3.56,23.43,3.73,33.01Z"/><path class="cls-1" d="M218.48,254.46c0-18.24-.49-39.86.17-61.45.44-14.31,2.28-28.6,3.97-42.84.9-7.59,15.73-20.01,23.28-20.29,4.76-.18,12.95,6.25,14.83,12.5,1.79,5.95,3.47,12.11,3.88,18.27.85,12.91.86,25.88,1.17,38.83.36,14.94.02,29.94,1.21,44.82,1.09,13.56,3.56,27.04,5.98,40.46.72,3.99,2.47,8.94,7.78,8.91,5.16-.03,6.27-4.53,7.03-8.74.26-1.45.68-2.91.66-4.36-.29-16.11.07-32.28-1.21-48.32-1.12-14.06-4.29-27.94-6.19-41.95-1.77-13.04-3.31-26.13-4.5-39.24-1.29-14.15-2.1-28.34-3.05-42.52-.8-11.86,7.06-23.8,19.61-26.17,4.83-.91,9.52-2.57,14.36-3.37,6.69-1.12,11.54,2.59,15.2,7.49,5.37,7.19,7.23,15.72,8.18,24.54,1.84,17.02,3.96,34.02,5.85,51.03.58,5.25.72,10.56,1.11,15.83,1.3,17.79,2.57,35.57,3.96,53.35.92,11.84,1.89,23.68,3.1,35.5,1.1,10.8,2.99,21.53,3.75,32.35.85,12.08,1.22,24.22,1.08,36.32-.13,11.23-.45,22.56-2.09,33.64-1.9,12.88-5.54,25.46-14.48,35.66-5.93,6.77-13.04,11.51-21.55,14.94-8.37,3.38-16.72,3.53-25.32,3.51-7.73-.02-15.55.7-23.16-.24-4.81-.59-9.95-2.78-13.83-5.72-7.74-5.87-13.05-13.5-16.04-23.26-5.63-18.41-7.66-37.34-9.63-56.27-1.37-13.15-1.37-26.45-2.15-39.67-.79-13.38-1.8-26.75-2.94-43.55Z"/><path class="cls-1" d="M597.42,151.7c-.36,12.41,6.27,14.29,14.84,15.03,8.54.74,15.31,6.93,15.44,15.71.25,16.99.31,34-.07,50.99-.12,5.45-2.09,10.98-7.44,13.74-2.36,1.22-5.52,1.19-8.32,1.17-2.59-.02-5.17-1.07-7.77-1.16-5.71-.18-8.21,2.07-8.27,8-.16,15.89-.16,31.78,0,47.67.1,10.11.68,20.22.91,30.34.16,6.83-2.49,12.54-7.51,17.16-4.48,4.14-9.99,4.66-15.65,2.59-5.51-2.01-11.26-3.72-17.05-4.52-12.47-1.71-19.59-9.8-23.43-20.42-3.32-9.16-5.88-18.96-6.34-28.73-.29-6.19,1.29-12.72,1.67-19.11.54-9.1,1.01-18.23.95-27.34-.1-16.78-.48-33.56-.99-50.34-.48-15.57-1.09-31.13-1.99-46.68-1.41-24.36-3.21-48.66-7.7-72.73-1.93-10.34-2.47-20.96-3.15-31.49-.3-4.61.1-9.41,1.07-13.93,3.24-15.02,18.5-18.15,28.69-16.58,21.65,3.34,42.05,10.96,61.59,20.44,20.71,10.05,41.82,19.69,59.92,34.3,8.21,6.63,17.1,13.47,18.29,24.97.74,7.1.49,14.67-1.21,21.57-2.17,8.79-8.69,12.53-18.48,12.75-7.94.18-15.52-.25-23.27-3.57-9.74-4.17-20.33-6.46-30.66-9.15-7.92-2.06-12.44,1.76-12.79,9.83-.21,4.94-.85,9.87-1.3,14.8"/><path class="cls-1" d="M365.77,493.18c0,32.44.09,64.88-.05,97.33-.05,12.78-.59,25.56-.97,38.34-.27,8.95-.93,17.9-.89,26.84.06,12.78.35,25.57,1.04,38.34.6,11.19,2.73,22.36,2.66,33.52-.09,13.35-1.12,26.78-3.04,39.99-1.32,9.08-10.6,20.02-23.01,22.33-5.09.95-10.61-.32-15.92-.79-5.9-.52-11.85-.93-17.66-2-11.28-2.07-22.64-4.01-33.69-7.03-10.78-2.95-17.98-10.83-19.27-21.78-.7-5.95,1.94-12.57,4.1-18.51,2.75-7.56,7.06-14.56,9.77-22.13,4.59-12.81,9.41-25.66,12.35-38.89,3.17-14.23,4.54-28.89,6.22-43.42,1.38-11.96,3.1-21.91,2.75-35.98-.5-20.4-1.29-36.47-5.34-61.09-2.07-12.61-2.92-25.54-5.56-38.07-2.6-12.33-2.54-24.63-2.89-37.04-.29-10.47,13.54-25.87,25.38-25.68,9.88.16,19.82-2.58,29.7-4.24,7.91-1.33,15.81-2.74,22.61,3.1,5.86,5.04,10.37,10.82,10.81,19.15"/></svg>