<?xml version="1.0" encoding="UTF-8"?><svg id="Layer_1" xmlns="http://www.w3.org/2000/svg" viewBox="0 0 893.75 738.19"><defs><style>.cls-1{fill:#127794;}</style></defs><path class="cls-1" d="M276.53.08c8.87-.22,13.75.03,21.76.52,23.55.97,45.96,5.2,68.69,9.55,17.67,4.71,35.41,9.29,52.7,15.29,8.73,3.82,17.97,6.32,26.6,10.37,8.59,3.22,16.64,7.65,25.24,10.83,41.72,19.35,81.43,42.65,121.07,65.89,21.68,12.8,43.28,25.79,65.68,37.33,8.06,4.19,16.47,7.6,24.76,11.3,4.57,2.11,9.56,3.02,14.34,4.54,5.53,1.56,10.94,3.63,16.66,4.41,8.3,1.5,16.77.69,25.16.95,9.84.5,18.86-4.23,27.14-8.97,9.52-6.46,16.24-17.43,16.71-29.03.55-8.02-.73-16.59-5.99-22.96-9.98-14.4-30.95-17.75-46.19-10.36-6.19,2.86-10.07,9.38-16.7,11.38-4.88.22-7.5-5.65-5.71-9.72,3.64-9.27,9.88-17.29,17.01-24.14,7.68-6.57,16.76-11.21,26.08-14.97,11.07-4,23.04-3.83,34.64-3.27,25.74,2.33,49.62,16.28,66.3,35.75,8.79,9.84,15.1,21.61,20.32,33.67,5.34,14.32,9.82,29.16,10.48,44.54.09,7.38,1.46,14.69.92,22.08-.79,10.22-1.49,20.49-3.34,30.59-3.11,14.01-7.27,27.81-12.93,41.01-2.24,6.66-6.22,12.48-9.23,18.78-5.69,10.32-12.32,20.12-19.79,29.24-8.46,11.45-18.81,21.28-29.47,30.63-15.38,13.55-32.98,24.29-50.84,34.21-11.23,5.75-22.99,10.34-34.54,15.38-4.18,1.7-8.55,2.84-12.79,4.33-10.28,3.86-21.14,5.76-31.81,8.19-19.44,4.36-39.48,4.36-59.28,3.83-8.34.09-16.6-1.25-24.85-2.28-11.76-2.33-23.59-4.5-35.07-7.99-8.89-3.52-18.25-5.79-26.87-9.99-18.09-6.82-34.92-16.44-52.18-25.03-16.99-8.92-34.26-17.25-51.81-25.01-6.61-3.06-13.71-4.84-20.42-7.64-7.68-3.19-15.89-4.72-23.81-7.17-10.93-3.38-22.35-4.56-33.58-6.44-18.75-2-37.81-2.71-56.5.28-7.97,1.36-16.04,2.19-23.89,4.16-15.55,3.97-30.94,8.83-45.57,15.48-5.37,3.09-11.21,5.23-16.59,8.3-15.56,8.66-30.3,18.73-44.27,29.77-10.53,8.37-20.14,17.79-30.17,26.74-10.79,11.06-22.18,22.08-36.35,28.69-7.71,2.77-15.7,5.98-24.06,4.94-8.01-1.01-16.07-3.52-22.54-8.5-16.41-11-25.83-29.31-32.95-47.17-2.7-6.38-4.23-13.15-6.22-19.77-4.45-14.91-6.67-30.35-9.37-45.63-1.8-10.91-1.96-21.97-3.03-32.95.12-11.02-.61-22.09.8-33.05.48-13.19,2.39-26.3,5.04-39.21,1.27-7.51,2.45-15.06,4.56-22.39,2.57-8.77,4.37-17.76,7.72-26.28,2.9-7.15,4.75-14.71,8.46-21.52,9.8-22.38,23-43.44,40.12-60.98,22.64-21.8,49.12-39.64,78-52.07,6.47-3.28,13.39-5.51,20.25-7.82,11.46-4.51,23.58-6.97,35.32-10.62,16.74-3.65,33.61-6.88,50.7-8.45,9.16-.98,17.18-1.69,25.48-1.57ZM303.58,52.58c-4.54.83-9.44,2.87-11.28,7.46-4.89,10.33-2.3,21.98-1.63,32.88,2.57,13.92,2.89,28.12,4.4,42.17.36,14.35,2.85,28.57,2.43,42.94.51,10.01-1.43,19.99-4.8,29.38-1.93,5.11-6.33,9.34-11.67,10.68-4.5.8-9.06-1.59-11.98-4.9-4.98-5.76-7.31-13.28-8.48-20.67-1.36-10.23-3.44-20.37-4.21-30.68-.61-11.28-1.72-22.54-1.47-33.86-1.43-15.97-.35-32.02-.87-48.02-.42-5.69-.96-11.71-4.18-16.6-2.17-3.36-5.09-6.59-9.07-7.71-11.28-2.21-23.86.61-32.19,8.79-5.89,6.26-8.94,15.03-8.39,23.59-.43,8.91,2.16,17.53,2.77,26.36,1.24,8.16,1.53,16.41,2.27,24.62,1.7,23.81,3.3,47.64,6.79,71.26.93,8.91,3.63,17.47,6.04,26.06,2.57,9.71,6.8,19.03,12.53,27.29,6.06,8.76,14.93,15.47,25.06,18.75,14.28,3.7,29.38,3.02,43.64-.42,16.01-4.4,29.67-16.3,35.94-31.71,2.38-6.65,5.75-13,7.03-20,4.27-21.06,6.99-42.69,4.93-64.19-.59-18.21-2.85-36.33-3.65-54.53-1.24-9.51-.1-19.13-1.1-28.66-.48-5.06.1-10.38-2.06-15.12-3.01-7.55-10.12-13.47-18.26-14.46-6.12-.89-12.39-1.94-18.54-.7ZM369.69,80.45c-1.5,3.6-1.36,7.59-1.78,11.4-.96,7.9.44,15.81.93,23.69,1.26,17.13,2.5,34.38.79,51.52-.69,17.63.25,35.32-1.08,52.92-.26,12,.24,24.05-1.04,36.01-.35,7.46-.94,16.2,4.75,21.97,3.56,4.41,9.23,5.8,14.36,7.51,5.42,1.74,10.74,4.27,16.53,4.38,3.26.08,7.06.24,9.48-2.39,4.92-4.28,4.47-11.49,4.18-17.4-1.29-9.64-.71-19.38-.83-29.07.04-2.22.02-4.97,1.35-6.81.76-1.05,2.24-1.29,3.29-.53,3.14,2.27,5.64,5.39,7.08,9,2.62,6.44,5.51,12.79,7.59,19.45,1.86,5.89,4.84,11.35,6.7,17.25,2.51,8.18,5.63,16.32,10.41,23.46,8.13,11.76,22.11,18.08,35.96,19.85,4.64.42,10.08-.45,13.01-4.48,4.46-5.69,4.06-13.4,3.55-20.2-1.29-7.91-6.93-14.04-11.06-20.59-3.71-7.18-7.27-14.47-10.03-22.07-2.47-6.78-5.93-13.17-7.99-20.09-.58-1.54-.47-3.46.97-4.5,3.66-3.05,8.27-4.94,11.37-8.67,9.9-12.32,13.35-28.51,13-44.03.68-16.8-3.7-33.56-11.77-48.24-5.76-9.27-11.89-18.61-20.57-25.42-9.04-8.2-19.81-14.26-31.16-18.61-9.02-2.96-17.63-7.06-26.91-9.19-8.88-2.03-17.16-7.47-26.58-6.24-6.36.08-11.77,4.64-14.5,10.12ZM151.61,83.61c-8.01,1.01-14.91,5.44-22.04,8.85-20.08,10.86-38.73,25.89-49.68,46.29-4.45,8.9-8.93,17.94-11.1,27.72-5.17,20.06-6.42,42.03,1.48,61.56,3.92,8.41,10.03,16.47,19.01,19.79,9.42,4.3,20.23,3.38,29.74-.11,5.26-1.6,11.38-4.27,16.6-1.15,5.24,3.75,6.97,11.09,5.31,17.13-2.17,6.47-6.33,12.37-12.17,16.02-5.19,3.27-11.22,6.23-17.53,5.44-6.02-.65-10.76-5.86-17.05-5.12-10.26.67-17.74,9.03-22.53,17.41-6.8,12.84-8.84,28.12-5.99,42.34,1.77,7.51,4.19,15.36,9.88,20.89,5.79,6.43,15.03,8.47,23.36,7.88,8.28-1.73,16.51-4.5,23.59-9.23,9.47-5.2,17.65-12.31,26.1-18.94,6.44-5.88,12.54-12.13,18.61-18.39,4.06-4.04,6.83-9.11,10.27-13.64,7.04-9.74,12.08-20.8,15.63-32.23,3.37-15.69,4.99-31.99,2.71-47.95-.79-6.61-1.77-13.29-4.43-19.45-3.72-9.12-8.74-18.11-16.6-24.29-8.97-7.02-21.49-8.36-32.14-4.83-6.06,1.89-12.69,4.41-19,2.08-4.1-1.67-4.98-6.71-4.78-10.65.08-6.82,4.64-12.53,9.79-16.54,4.86-3.95,11.71-6.15,17.76-3.75,5.97,2.51,13.06,3.47,19.05.5,5.86-2.63,9.14-8.62,11.66-14.21,3.13-6.89,3.04-14.6,3.48-22-.59-8.74-.98-18.41-7.05-25.36-4.94-6.8-14.37-7.08-21.94-6.06ZM534.6,135.59c-3.6.55-7.64,2.02-9.06,5.71-4.11,9.8-1.02,20.55-1.1,30.76.48,6.97.01,13.97.72,20.93-.21,5.43-1.08,11.01-.35,16.54.71,29.8.24,59.68.42,89.51-.27,8.51-1.6,17.07-.42,25.58,1.25,6.43,5.24,12.57,11.22,15.52,7.2,3.67,14.44,7.61,22.36,9.46,4.52.76,10.34,1.18,13.38-3.01,3.59-5.11,1.79-11.75,2.15-17.57.44-9.69-1.34-19.29-1-28.99.15-4.34-.54-9.32,2.32-12.97,2.34-2.9,6.26-1.35,9.12-.29,6.18,2.57,12.5,4.78,18.75,7.17,3.87,1.7,8.48,2.61,12.27.18,5.56-2.81,4.77-9.89,4.82-15.1-.33-7.64,1.31-16.13-3.06-22.93-4.88-6.91-13.81-7.76-20.98-10.97-5.89-2.64-12.16-4.3-17.97-7.1-4.61-2.01-5.53-7.58-5.94-12.04-.17-5.19-.57-10.59,1.1-15.6.9-2.74,4.18-3.38,6.63-2.47,6.54,1.98,12.16,6.02,18.3,8.91,7.68,3.93,15.76,9.14,24.78,7.96,3.24-.26,4.69-3.63,5.32-6.38,1.09-5.15,1.8-10.46,1.12-15.7-.81-6.96-.4-14.54-4.28-20.69-4.86-6.55-13.61-7.59-20.09-11.92-17.33-9.16-34.1-19.31-51.3-28.71-5.69-3.61-12.23-7.3-19.23-5.79ZM652.48,194.5c-4.01.52-5.48,4.84-6.45,8.18-1.41,7.81-.34,15.81,1.02,23.56.77,9.93,1.54,19.87,1.46,29.84,1.44,14.94.13,29.99,1.66,44.92.48,7.44-.08,14.93.71,22.36.76,7.89.02,15.82.38,23.73.14,3.87,1.44,7.82,4.31,10.53,4.22,4.46,10.8,5.08,16.6,5.15,10.21-.41,20.4-1.56,30.43-3.54,8.33-1.56,16.73-3.1,24.69-6.13,9.95-3.71,20.61-6.36,29.28-12.74,5.51-4.83,4.7-12.8,4.59-19.4-.01-4.56-1.15-9.97-5.58-12.24-6.84-1.75-14.04-.19-20.47,2.38-8.3,3.28-17.05,5.33-25.93,6.18-2.36.11-5.08.43-7.01-1.24-3.52-2.45-4.09-7.09-4.06-11.04-.05-4.35,4.07-7.66,8.2-7.85,8.17-.59,16.44-.14,24.52-1.7,3.52-.79,6.68-3.36,7.79-6.85,2.11-5.31.72-11.04.21-16.5-.32-3.86-2.79-7.92-6.81-8.71-10.43-1.64-20.98,2.5-31.34.2-5.63-1.28-7.77-7.41-7.63-12.58-.29-2.95,1.9-5.33,4.11-6.94,2.41-1.7,5.49-.79,8.16-.36,6.86,1.61,13.96,1.03,20.92,1.92,5.75.28,12.94.31,16.59-4.99,3.65-5.22,1.36-11.82,1.2-17.65-.12-6.13-5.6-11.78-11.79-11.79-11.08-.67-22.27-1.62-32.88-5.14-8.88-2.11-17.68-4.54-26.18-7.9-6.6-2.43-13.55-5.25-20.7-3.66Z"/><path class="cls-1" d="M420.93,139.23c.78-.62,1.8-.88,2.77-.65,6.97,1.66,13.81,4.86,18.56,10.35,5.95,6.49,9.23,15.68,7.47,24.45-.75,5.21-3.75,10.23-8.42,12.8-4.94,2.42-10.31-.22-14.78-2.44-3.3-1.85-7.55-3.44-8.75-7.42-1.34-4.71-.42-9.66-.09-14.45.49-5.94-.2-11.9.3-17.83.08-2.02,1.41-3.59,2.94-4.8Z"/><path class="cls-1" d="M889.67,287.57l.11-.25c.81-1.92,3.63-1.41,3.75.66.53,9.34-.05,18.75-.35,28.1-1.39,25.7-3.47,51.37-6.35,76.95-3.49,28.77-7.12,57.68-14.87,85.67-1.84,10.72-6.12,20.76-8.79,31.26-2.41,7.39-5.77,14.43-8.13,21.85-13.35,31.45-29.67,62.04-52.02,88.08-5.73,7.52-12.81,13.83-19.39,20.58-7.44,7.61-15.37,14.77-23.92,21.1-8.55,6.97-17.56,13.37-27.02,19.03-32.58,20.66-68.55,35.98-106.05,45.05-10.16,2.18-20.15,5.19-30.49,6.46-13.62,1.85-27.22,3.89-40.94,4.93-10.37.08-20.66,1.58-31.05,1.03-14.06-1.18-28.25-1.16-42.18-3.7-17.4-1.29-34.57-4.57-51.53-8.54-12.19-2.06-23.91-6.1-35.88-9.1-7.15-1.92-13.91-5-21.02-7.03-5.47-1.57-10.52-4.26-15.92-6.02-8.54-2.84-16.67-6.75-25.07-9.95-22.61-10.98-45.27-21.99-66.52-35.48-16.04-10-31.89-20.49-46.3-32.78-7.57-6.04-15.22-12.05-21.99-19.01-5.13-5.21-10.76-9.9-15.95-15.05-12.62-13.5-24.62-27.63-35.27-42.74-2.77-4.92-6.19-9.49-8.37-14.72-2.79-7.08-6.33-13.97-7.41-21.6-1.95-13.11-.6-26.82,4.59-39.06,2.51-7.96,6.69-15.21,10.3-22.69,17.32-31.27,41.71-58.77,71.37-78.84,3.42-2.7,7.11-5.04,11-7.02,10.51-6.46,21.86-11.51,33.55-15.42,8.46-3.24,17.25-5.59,26.2-6.96,16.47-3.86,33.63-4.38,50.41-2.51,7.01.52,13.8,2.54,20.78,3.4,11.22,1.65,21.63,6.25,32.4,9.56,12.66,5,25.1,10.61,37.21,16.82,25.21,13.4,49.6,28.37,75.49,40.47,7.01,2.55,13.6,6.14,20.77,8.26,4.47,1.42,8.82,3.21,13.29,4.65,8.81,2.97,17.99,4.6,26.95,7.07,10.19,2.41,20.67,3.01,31.08,3.81,8.32-.2,16.58,1.71,24.91.73,7.37-1.01,14.85-.34,22.23-1.4,14.74-.95,29.14-4.36,43.49-7.69,8.14-1.64,15.84-4.84,23.75-7.26,19.96-6.75,39.23-15.39,57.96-25.01,14.58-8.25,29.23-16.44,43.09-25.88,11.84-7.51,22.4-16.8,32.78-26.16,12.38-11.29,24.38-23.08,34.67-36.34,4.06-5.42,8.06-11.01,10.65-17.31ZM272.61,382.58c-9.36.86-19.1,7.26-20.65,17.04-.98,6.42-1.53,12.92-1.66,19.42-.5,13.65-3.99,26.94-5.51,40.48-2.24,13.93-5.06,27.75-7.29,41.68-1.39,9.42-3.9,18.62-6.14,27.86-1.24,4.9-1.28,10.01-1.01,15.04.27,6.83,4.33,13.06,9.76,17.02,14.22,10.85,28.04,22.48,43.8,31.07,7.02,4.13,15.2,5.23,23.17,6,11.9,1.85,24.08-1.74,34.09-8.16,7.02-3.71,11.88-10.14,16.73-16.21,13.99-19.71,19.17-44.06,21.19-67.75,1.16-8.66.94-17.42-.05-26.08-1.54-22.63-8.37-45.36-22.35-63.48-7.17-9.85-17.23-17.12-27.63-23.24-6.11-3.16-12.58-5.62-19.06-7.89-12.18-2.98-24.9-4.18-37.39-2.8ZM415.58,441.52c-3.7,1.1-7.29,3.43-8.58,7.23-2.89,7.73-3.19,16.13-3.66,24.29-2.98,23.71-4.23,47.61-7.59,71.28-1.48,19.44-3.25,38.87-5.93,58.19-.82,5.82-2.06,11.6-2.45,17.49-.66,9.01,4.03,18.48,12.16,22.69,6.39,3.52,13.08,6.61,20.06,8.73,5.88,1.68,13.42.54,16.71-5.13,3.26-7.63,3.27-16.1,3.81-24.24,2.51-18.62,3.24-37.42,5.65-56.05,0-7.39,2.14-14.55,2.19-21.93.02-6.06,1.59-11.97,1.88-18,.44-11.04,1.97-22,2.36-33.04,1.01-10.24,5.07-20.97.96-31.03-2.04-6.32-7.03-11.21-12.95-14.01-7.6-3.73-15.85-8.42-24.62-6.47ZM736.28,451.12c-5.64,3.52-10.76,8.11-14.05,13.95-2.57,4.52-5.29,9-6.97,13.95-3.07,9.22-6.8,18.21-9.47,27.57-3.12,7.97-6.19,15.96-8.78,24.12-1.09,2.31-2.16,6.8-5.6,5.44-2.67-3.29-3.18-7.74-4.84-11.54-3.57-8.8-5.79-18.05-9.19-26.9-1.77-4.7-3.01-9.74-6.05-13.82-3.08-4.27-8.77-5.92-13.83-5.38-9.84,1.52-19.53,4.21-28.6,8.33-8.34,3.72-11.48,13.64-11.61,22.12.19,26.78-5.41,53.11-7.34,79.72-1.49,15.58-3.24,31.13-5.19,46.65-.75,9.81-4.3,19.85-1.32,29.6,1.15,4.17,5.75,5.91,9.7,5.91,8.92.24,17.68-2.53,25.71-6.21,6.63-2.82,10.99-9.68,12.05-16.63.55-12.31,1.66-24.59,2.36-36.89,1.08-8.34.19-17.42,4.42-24.97.79-1.41,2.78-1.55,3.71-.22.57.82.98,1.9,1.38,2.7,6.05,14.18,9.23,29.4,15.44,43.52,1.46,2.78,4.79,4.15,7.84,3.63,4.53-.72,9.53-2.71,11.6-7.13,5.09-8.81,7.9-18.62,12.14-27.81,3.46-9.83,7.1-19.59,10.8-29.33.81-1.73,1.6-4.07,3.02-5.46s3.72-.73,4.28,1.12c.95,3.16,1.09,6.55,1.32,9.84.3,10.33.41,20.68.05,31.02.02,2.78-.26,5.69.74,8.35,1.05,2.75,4.33,3.75,7.04,3.37,8.07-.86,14.6-6.24,20.72-11.12,5.82-4.5,10.77-10.17,14.3-16.63,4.02-7.28,3.8-15.92,3.04-23.95-.35-8.01-.22-16.04.12-24.05,1.4-14.96.17-30.04,1.55-45,.31-8.98-.04-17.97.14-26.95.15-7.54-.14-15.43-3.36-22.38-2.6-5.76-9.75-6.77-15.36-6.41-7.99.16-15.09,4.14-21.9,7.87ZM493.58,471.61c-3.62.65-7.03,2.56-9.26,5.51-4.78,6.19-6.31,14.24-6.1,21.91.41,17.07-2.57,33.98-3,51.02-.59,6.67-1.87,13.26-2.01,19.97-.88,6.98-1.86,13.95-1.99,21-1.88,11.27-2.28,22.7-3.62,34.04-.4,11.07-4.73,22.47-.66,33.34,1.82,6.38,7.99,10.39,14.27,11.5,15.59,2.77,31.35,4.57,47.03,6.79,10.58,1.54,21.29,1,31.95,1.29,5.07-.19,10.84.55,15.1-2.85,6-4.27,8.18-12.02,8.62-19.03.21-6.88,2.3-14-.15-20.71-1.24-4.33-5.12-7.69-9.62-8.09-10.35-.99-20.82.95-31.12-.86-7.13-1.17-15.33-.93-20.88-6.32-3.05-2.45-2.36-6.68-2.28-10.12-.11-5.43,4.16-10.8,9.55-11.66,4.47.1,8.83,1.32,13.19,2.23,5.41,1.45,11.07,1.54,16.64,1.32,4.77,0,9.19-3.17,11.33-7.34,2.3-5.01,2.33-10.63,3.06-15.99.72-5.22.54-10.94-2.44-15.48-3.38-3.97-9-4.97-13.96-4.77-6.94.29-13.88-.35-20.71-1.52-3.69-.7-7.66-2.03-9.74-5.4-2.64-4.19-1.13-9.37-.22-13.85.77-4.01,4.44-7.27,8.59-7.21,8,.19,15.59,3.13,23.49,4.04,6.16.66,12.31,2.04,18.53,1.44,4.7-.44,9.05-3.34,11.34-7.45,4.2-6.65,3.72-14.8,4.43-22.33-.26-6.37-.36-14.44-6.38-18.28-7.79-3.6-16.63-1.59-24.85-3.03-10.15-1.11-20.06-3.58-30.16-4.97-12.73-2.29-24.69-10.09-37.97-8.14Z"/><path class="cls-1" d="M298.48,445.03c2.18-.97,4.58.19,6.7.86,10.07,3.6,16.95,12.85,20.74,22.5,2.68,9.88,4.73,20.21,3.08,30.46-1.4,6.41-2.11,13.04-4.78,19.1-3.03,7.3-7.26,15.24-15.21,17.98-6.07,1.74-12.03-1.64-17.16-4.52-3.85-2.52-8.85-6.03-7.92-11.31,3.36-16.92,5.73-34.04,9.24-50.93,1.21-6.76.99-13.73,2.67-20.42.36-1.52,1.18-3.02,2.64-3.72Z"/></svg>